#!OML:ASF H:\Terrain\Walking\May29\JustinRory\Justin.ASF
:FULLY-SPECIFIED
:DEGREES
1624
root 11.889040918163673 17.73680578842315 8.029381536926149 -165.12109181636725 -87.76598303393214 64.62676247504987 
lowerback 4.6273140518962075 -2.7826224550898204 -11.101266786427145 
upperback 2.445487764471058 -4.239975369261477 0.7702693113772455 
thorax 0.9253075129740519 -2.327308343313373 7.173046706586826 
lowerneck -4.0520950898203605 -10.857144031936127 -14.711973892215568 
upperneck 20.863373053892214 -17.144291644710577 11.256050483033931 
head 10.180071856287425 -8.785781956087824 4.285994151696607 
rclavicle 6.868268463073852e-14 -1.650369241516966e-14 
rhumerus -33.233277844311374 -19.242488822355288 -68.81454071856288 
rradius 32.77679520958084 
rwrist -16.427376646706588 
rhand -12.632037225548903 22.845753093812377 
rfingers 7.12502 
rthumb 13.442856806387224 -6.603728223552895 
lclavicle 6.868268463073852e-14 -1.650369241516966e-14 
lhumerus -26.06949261477046 9.355416467065869 77.72384451097804 
lradius 28.336192015968063 
lwrist -7.912277744510979 
lhand -0.665138862275449 40.02321516966068 
lfingers 7.12502 
lthumb 24.950148103792415 68.38271477045909 
rfemur -26.224938123752494 -5.1235015968063875 12.134880339321358 
rtibia 33.410714371257484 
rfoot -12.12795349301397 -5.235960778443113 
rtoes 2.802662694610778 
lfemur -6.446989141716564 4.705163153692612 -25.24977005988024 
ltibia 26.024076247504986 
lfoot -17.564968463073853 0.7336425149700609 
ltoes 6.57805898203593 
1625
root 11.891901596806386 17.736418762475047 8.012070499001997 -165.08715968063873 -87.65041397205589 65.31119560878241 
lowerback 4.631723133732535 -2.7851120958083833 -11.118544411177645 
upperback 2.4479965469061877 -4.24439499001996 0.7717858023952096 
thorax 0.9275682834331338 -2.3299984231536928 7.184540359281437 
lowerneck -4.017923808383236 -10.880439620758484 -14.725435029940119 
upperneck 20.856457485029942 -17.190170469061876 11.290333013972054 
head 10.179946706586826 -8.806414271457086 4.294690698602794 
rclavicle 6.852149500998003e-14 -1.6507065069860277e-14 
rhumerus -33.2321005988024 -19.246332734530938 -68.82356646706587 
rradius 32.78435688622754 
rwrist -16.42398982035928 
rhand -12.604371696606787 22.845544510978044 
rfingers 7.12502 
rthumb 13.469537924151696 -6.6025473453093815 
lclavicle 6.852149500998003e-14 -1.6507065069860277e-14 
lhumerus -26.050500199600798 9.339258203592816 77.75443393213573 
lradius 28.334994810379243 
lwrist -7.921423033932136 
lhand -0.6516697604790425 40.01966986027944 
lfingers 7.12502 
lthumb 24.96306626746507 68.3774996007984 
rfemur -26.21270978043912 -5.128231037924151 12.096979720558883 
rtibia 33.46332934131737 
rfoot -12.151664770459082 -5.259597005988022 
rtoes 2.821814251497005 
lfemur -6.476928942115766 4.739905049900197 -25.244830538922155 
ltibia 26.052019560878243 
lfoot -17.577049500998005 0.7883026347305382 
ltoes 6.5177008383233535 
1626
root 11.894762275449102 17.736031736526947 7.9947594610778445 -165.0532275449102 -87.53484491017964 65.99562874251495 
lowerback 4.636132215568862 -2.787601736526946 -11.135822035928143 
upperback 2.4505053293413175 -4.248814610778442 0.7733022934131737 
thorax 0.9298290538922156 -2.332688502994012 7.196034011976048 
lowerneck -3.983752526946109 -10.903735209580837 -14.73889616766467 
upperneck 20.849541916167666 -17.236049293413174 11.324615544910179 
head 10.179821556886228 -8.827046586826349 4.303387245508982 
rclavicle 6.836030538922156e-14 -1.6510437724550898e-14 
rhumerus -33.23092335329341 -19.250176646706585 -68.83259221556887 
rradius 32.79191856287425 
rwrist -16.420602994011976 
rhand -12.576706167664671 22.84533592814371 
rfingers 7.12502 
rthumb 13.496219041916167 -6.601366467065868 
lclavicle 6.836030538922156e-14 -1.6510437724550898e-14 
lhumerus -26.031507784431138 9.323099940119763 77.78502335329341 
lradius 28.33379760479042 
lwrist -7.9305683233532935 
lhand -0.638200658682635 40.016124550898205 
lfingers 7.12502 
lthumb 24.975984431137725 68.37228443113773 
rfemur -26.200481437125745 -5.132960479041916 12.059079101796407 
rtibia 33.51594431137725 
rfoot -12.17537604790419 -5.283233233532933 
rtoes 2.8409658083832325 
lfemur -6.506868742514968 4.774646946107782 -25.239891017964073 
ltibia 26.079962874251493 
lfoot -17.589130538922156 0.842962754491019 
ltoes 6.45734269461078 
1627
root 11.897622954091815 17.735644710578843 7.977448423153693 -165.01929540918164 -87.41927584830339 66.68006187624749 
lowerback 4.640541297405189 -2.790091377245509 -11.153099660678642 
upperback 2.4530141117764472 -4.253234231536926 0.7748187844311377 
thorax 0.9320898243512974 -2.3353785828343314 7.207527664670659 
lowerneck -3.949581245508984 -10.927030798403191 -14.752357305389221 
upperneck 20.84262634730539 -17.28192811776447 11.358898075848302 
head 10.179696407185629 -8.847678902195609 4.312083792415169 
rclavicle 6.819911576846307e-14 -1.6513810379241516e-14 
rhumerus -33.22974610778443 -19.254020558882235 -68.84161796407186 
rradius 32.79948023952096 
rwrist -16.41721616766467 
rhand -12.549040638722555 22.845127345309383 
rfingers 7.12502 
rthumb 13.522900159680638 -6.600185588822356 
lclavicle 6.819911576846307e-14 -1.6513810379241516e-14 
lhumerus -26.01251536926148 9.306941676646709 77.8156127744511 
lradius 28.332600399201596 
lwrist -7.939713612774452 
lhand -0.6247315568862275 40.01257924151697 
lfingers 7.12502 
lthumb 24.98890259481038 68.36706926147706 
rfemur -26.188253093812374 -5.137689920159681 12.021178483033932 
rtibia 33.568559281437125 
rfoot -12.1990873253493 -5.306869461077843 
rtoes 2.8601173652694603 
lfemur -6.536808542914169 4.809388842315367 -25.234951497005987 
ltibia 26.10790618762475 
lfoot -17.601211576846307 0.8976228742514962 
ltoes 6.396984550898203 
1628
root 11.900483632734531 17.73525768463074 7.960137385229541 -164.9853632734531 -87.30370678642714 67.36449500998 
lowerback 4.644950379241517 -2.7925810179640718 -11.17037728542914 
upperback 2.455522894211577 -4.257653852295409 0.7763352754491017 
thorax 0.9343505948103793 -2.338068662674651 7.21902131736527 
lowerneck -3.915409964071859 -10.950326387225548 -14.765818443113773 
upperneck 20.835710778443115 -17.327806942115767 11.393180606786427 
head 10.17957125748503 -8.86831121756487 4.320780339321357 
rclavicle 6.803792614770459e-14 -1.6517183033932137e-14 
rhumerus -33.22856886227545 -19.257864471057882 -68.85064371257485 
rradius 32.80704191616766 
rwrist -16.413829341317367 
rhand -12.521375109780438 22.84491876247505 
rfingers 7.12502 
rthumb 13.549581277445109 -6.599004710578843 
lclavicle 6.803792614770459e-14 -1.6517183033932137e-14 
lhumerus -25.993522954091816 9.290783413173655 77.84620219560878 
lradius 28.331403193612775 
lwrist -7.948858902195609 
lhand -0.61126245508982 40.00903393213573 
lfingers 7.12502 
lthumb 25.001820758483035 68.36185409181637 
rfemur -26.176024750499 -5.142419361277446 11.983277864271457 
rtibia 33.62117425149701 
rfoot -12.22279860279441 -5.330505688622754 
rtoes 2.879268922155688 
lfemur -6.566748343313371 4.844130738522952 -25.230011976047905 
ltibia 26.135849500998003 
lfoot -17.613292614770458 0.952282994011977 
ltoes 6.33662640718563 
1629
root 11.903344311377245 17.734870658682635 7.94282634730539 -164.95143113772457 -87.1881377245509 68.04892814371254 
lowerback 4.649359461077845 -2.7950706586826346 -11.187654910179639 
upperback 2.4580316766467067 -4.262073473053892 0.7778517664670659 
thorax 0.9366113652694611 -2.34075874251497 7.230514970059879 
lowerneck -3.8812386826347325 -10.973621976047902 -14.779279580838322 
upperneck 20.82879520958084 -17.373685766467066 11.42746313772455 
head 10.17944610778443 -8.888943532934132 4.329476886227544 
rclavicle 6.78767365269461e-14 -1.6520555688622754e-14 
rhumerus -33.22739161676647 -19.261708383233533 -68.85966946107784 
rradius 32.81460359281437 
rwrist -16.41044251497006 
rhand -12.493709580838322 22.844710179640717 
rfingers 7.12502 
rthumb 13.57626239520958 -6.5978238323353295 
lclavicle 6.78767365269461e-14 -1.6520555688622754e-14 
lhumerus -25.974530538922156 9.2746251497006 77.87679161676647 
lradius 28.330205988023952 
lwrist -7.958004191616768 
lhand -0.5977933532934134 40.00548862275449 
lfingers 7.12502 
lthumb 25.01473892215569 68.3566389221557 
rfemur -26.16379640718563 -5.147148802395209 11.945377245508983 
rtibia 33.67378922155689 
rfoot -12.24650988023952 -5.354141916167663 
rtoes 2.8984204790419157 
lfemur -6.596688143712573 4.878872634730537 -25.225072455089823 
ltibia 26.163792814371256 
lfoot -17.625373652694613 1.0069431137724543 
ltoes 6.276268263473057 
